<svg xmlns="http://www.w3.org/2000/svg" viewBox="0 0 800 500" width="800" height="500">
  <defs>
    <linearGradient id="bgc" x1="0" x2="0" y1="0" y2="1">
      <stop offset="0%" stop-color="#0b1212"/>
      <stop offset="100%" stop-color="#10201f"/>
    </linearGradient>
  </defs>
  <rect width="800" height="500" rx="24" fill="url(#bgc)"/>
  <g transform="translate(60,60)">
    <rect x="0" y="0" width="680" height="60" rx="14" fill="#0f1c1b" stroke="#1b3a39"/>
    <rect x="20" y="18" width="160" height="24" rx="8" fill="#173532"/>
    <rect x="200" y="18" width="100" height="24" rx="8" fill="#173532"/>
  </g>
  <g transform="translate(60,140)">
    <rect x="0" y="0" width="320" height="140" rx="12" fill="#0f1c1b" stroke="#1b3a39"/>
    <rect x="20" y="20" width="260" height="16" rx="8" fill="#173532"/>
    <rect x="20" y="50" width="280" height="12" rx="6" fill="#173532"/>
    <rect x="20" y="70" width="240" height="12" rx="6" fill="#173532"/>
    <rect x="20" y="100" width="120" height="10" rx="5" fill="#0ea5a6"/>
  </g>
  <g transform="translate(420,140)">
    <rect x="0" y="0" width="320" height="140" rx="12" fill="#0f1c1b" stroke="#1b3a39"/>
    <rect x="20" y="20" width="260" height="16" rx="8" fill="#173532"/>
    <rect x="20" y="50" width="280" height="12" rx="6" fill="#173532"/>
    <rect x="20" y="70" width="240" height="12" rx="6" fill="#173532"/>
    <rect x="20" y="100" width="120" height="10" rx="5" fill="#0ea5a6"/>
  </g>
</svg>

