<svg xmlns="http://www.w3.org/2000/svg" viewBox="0 0 800 500" width="800" height="500">
  <defs>
    <linearGradient id="bg" x1="0" x2="0" y1="0" y2="1">
      <stop offset="0%" stop-color="#0b1212"/>
      <stop offset="100%" stop-color="#0f2221"/>
    </linearGradient>
    <linearGradient id="card" x1="0" x2="1" y1="0" y2="1">
      <stop offset="0%" stop-color="#10201f"/>
      <stop offset="100%" stop-color="#122725"/>
    </linearGradient>
  </defs>
  <rect width="800" height="500" rx="24" fill="url(#bg)"/>
  <g transform="translate(80,60)">
    <rect x="0" y="0" width="300" height="380" rx="18" fill="url(#card)" stroke="#1b3a39"/>
    <rect x="20" y="20" width="260" height="40" rx="8" fill="#173532"/>
    <rect x="20" y="80" width="260" height="60" rx="12" fill="#173532"/>
    <rect x="20" y="150" width="260" height="60" rx="12" fill="#173532"/>
    <rect x="20" y="220" width="260" height="60" rx="12" fill="#173532"/>
    <rect x="20" y="290" width="120" height="30" rx="8" fill="#0ea5a6"/>
  </g>
  <g transform="translate(430,100)">
    <rect x="0" y="0" width="280" height="280" rx="18" fill="url(#card)" stroke="#1b3a39"/>
    <circle cx="140" cy="100" r="70" fill="#173532"/>
    <rect x="45" y="200" width="190" height="16" rx="8" fill="#173532"/>
    <rect x="80" y="230" width="120" height="12" rx="6" fill="#173532"/>
  </g>
</svg>

